<svg width="56" height="12" viewBox="0 0 56 12" fill="none" xmlns="http://www.w3.org/2000/svg">
<path d="M4.512 9.168C3.896 9.168 3.344 9.084 2.856 8.916C2.376 8.74 1.964 8.484 1.62 8.148C1.284 7.804 1.028 7.38 0.852 6.876C0.676 6.372 0.588 5.788 0.588 5.124C0.588 4.452 0.676 3.856 0.852 3.336C1.036 2.816 1.296 2.376 1.632 2.016C1.976 1.648 2.38 1.372 2.844 1.188C3.308 1.004 3.824 0.912 4.392 0.912C4.832 0.912 5.24 0.972 5.616 1.092C5.992 1.204 6.316 1.368 6.588 1.584C6.86 1.8 7.072 2.064 7.224 2.376C7.384 2.688 7.468 3.04 7.476 3.432L5.88 3.852C5.88 3.516 5.804 3.236 5.652 3.012C5.508 2.788 5.316 2.62 5.076 2.508C4.844 2.388 4.596 2.328 4.332 2.328C4.1 2.328 3.868 2.376 3.636 2.472C3.412 2.56 3.204 2.712 3.012 2.928C2.828 3.136 2.676 3.412 2.556 3.756C2.444 4.1 2.388 4.52 2.388 5.016C2.388 5.664 2.48 6.188 2.664 6.588C2.856 6.988 3.116 7.284 3.444 7.476C3.772 7.66 4.14 7.752 4.548 7.752C4.988 7.752 5.328 7.664 5.568 7.488C5.816 7.304 5.992 7.072 6.096 6.792C6.208 6.504 6.268 6.2 6.276 5.88L7.788 6.132C7.78 6.556 7.716 6.956 7.596 7.332C7.476 7.7 7.288 8.024 7.032 8.304C6.776 8.576 6.44 8.788 6.024 8.94C5.608 9.092 5.104 9.168 4.512 9.168ZM11.8043 9.168C11.1723 9.168 10.6163 9.044 10.1363 8.796C9.65625 8.54 9.28025 8.168 9.00825 7.68C8.73625 7.184 8.60025 6.568 8.60025 5.832C8.60025 5.096 8.73625 4.484 9.00825 3.996C9.28825 3.508 9.66825 3.144 10.1483 2.904C10.6363 2.656 11.1883 2.532 11.8043 2.532C12.4363 2.532 12.9923 2.656 13.4723 2.904C13.9603 3.152 14.3403 3.524 14.6123 4.02C14.8923 4.508 15.0323 5.12 15.0323 5.856C15.0323 6.6 14.8883 7.22 14.6003 7.716C14.3203 8.204 13.9363 8.568 13.4483 8.808C12.9683 9.048 12.4203 9.168 11.8043 9.168ZM11.8643 7.884C12.1763 7.884 12.4363 7.812 12.6443 7.668C12.8603 7.524 13.0203 7.308 13.1243 7.02C13.2363 6.724 13.2923 6.368 13.2923 5.952C13.2923 5.512 13.2323 5.14 13.1123 4.836C13.0003 4.524 12.8323 4.288 12.6083 4.128C12.3843 3.96 12.1003 3.876 11.7563 3.876C11.4603 3.876 11.2043 3.948 10.9883 4.092C10.7723 4.228 10.6083 4.444 10.4963 4.74C10.3843 5.028 10.3283 5.384 10.3283 5.808C10.3283 6.488 10.4643 7.004 10.7363 7.356C11.0083 7.708 11.3843 7.884 11.8643 7.884ZM16.2607 9V4.968V2.7H17.6408V4.584H17.8688C17.9808 4.12 18.1288 3.74 18.3128 3.444C18.4968 3.14 18.7168 2.912 18.9728 2.76C19.2368 2.608 19.5448 2.532 19.8968 2.532C20.2728 2.532 20.5848 2.616 20.8328 2.784C21.0808 2.952 21.2728 3.188 21.4088 3.492C21.5448 3.788 21.6328 4.152 21.6728 4.584H21.8648C21.9848 4.112 22.1448 3.724 22.3448 3.42C22.5528 3.116 22.7968 2.892 23.0768 2.748C23.3648 2.604 23.6808 2.532 24.0248 2.532C24.3688 2.532 24.6688 2.6 24.9248 2.736C25.1888 2.872 25.4088 3.076 25.5848 3.348C25.7608 3.612 25.8928 3.948 25.9808 4.356C26.0688 4.756 26.1128 5.22 26.1128 5.748V9H24.3848V5.964C24.3848 5.532 24.3488 5.172 24.2768 4.884C24.2048 4.588 24.0928 4.368 23.9408 4.224C23.7888 4.08 23.5928 4.008 23.3528 4.008C23.0888 4.008 22.8608 4.1 22.6688 4.284C22.4768 4.46 22.3248 4.704 22.2128 5.016C22.1008 5.328 22.0408 5.684 22.0328 6.084V9H20.3408V6.012C20.3408 5.564 20.3008 5.196 20.2208 4.908C20.1408 4.612 20.0248 4.388 19.8728 4.236C19.7208 4.084 19.5288 4.008 19.2968 4.008C19.0248 4.008 18.7928 4.1 18.6008 4.284C18.4088 4.46 18.2608 4.708 18.1568 5.028C18.0528 5.348 17.9968 5.704 17.9888 6.096V9H16.2607ZM27.6162 11.016V5.904V2.7H29.0442L29.0562 4.452L29.2722 4.464C29.3442 4.04 29.4682 3.684 29.6442 3.396C29.8282 3.108 30.0642 2.892 30.3522 2.748C30.6402 2.604 30.9722 2.532 31.3482 2.532C31.9082 2.532 32.3882 2.672 32.7882 2.952C33.1882 3.224 33.4922 3.612 33.7002 4.116C33.9162 4.612 34.0242 5.2 34.0242 5.88C34.0242 6.512 33.9282 7.076 33.7362 7.572C33.5442 8.06 33.2562 8.448 32.8722 8.736C32.4962 9.024 32.0242 9.168 31.4562 9.168C31.0562 9.168 30.7162 9.092 30.4362 8.94C30.1642 8.788 29.9362 8.576 29.7522 8.304C29.5762 8.024 29.4282 7.692 29.3082 7.308H29.0802C29.1282 7.524 29.1722 7.744 29.2122 7.968C29.2522 8.192 29.2842 8.412 29.3082 8.628C29.3322 8.836 29.3442 9.04 29.3442 9.24V11.016H27.6162ZM30.8562 7.788C31.1442 7.788 31.3882 7.708 31.5882 7.548C31.7882 7.388 31.9402 7.164 32.0442 6.876C32.1562 6.588 32.2122 6.26 32.2122 5.892C32.2122 5.492 32.1562 5.152 32.0442 4.872C31.9322 4.584 31.7722 4.36 31.5642 4.2C31.3562 4.04 31.1082 3.96 30.8202 3.96C30.5642 3.96 30.3442 4.016 30.1602 4.128C29.9762 4.24 29.8202 4.388 29.6922 4.572C29.5722 4.756 29.4842 4.956 29.4282 5.172C29.3722 5.38 29.3442 5.58 29.3442 5.772V6C29.3442 6.152 29.3642 6.312 29.4042 6.48C29.4442 6.64 29.5082 6.8 29.5962 6.96C29.6842 7.112 29.7882 7.252 29.9082 7.38C30.0282 7.5 30.1682 7.6 30.3282 7.68C30.4882 7.752 30.6642 7.788 30.8562 7.788ZM36.7446 9.168C36.3926 9.168 36.0806 9.1 35.8086 8.964C35.5366 8.82 35.3246 8.616 35.1726 8.352C35.0206 8.088 34.9446 7.76 34.9446 7.368C34.9446 7.024 35.0086 6.736 35.1366 6.504C35.2726 6.272 35.4686 6.084 35.7246 5.94C35.9806 5.796 36.2966 5.676 36.6726 5.58C37.0486 5.484 37.4766 5.4 37.9566 5.328C38.2126 5.288 38.4206 5.252 38.5806 5.22C38.7486 5.18 38.8726 5.12 38.9526 5.04C39.0326 4.952 39.0726 4.828 39.0726 4.668C39.0726 4.444 38.9926 4.252 38.8326 4.092C38.6726 3.932 38.4206 3.852 38.0766 3.852C37.8446 3.852 37.6286 3.892 37.4286 3.972C37.2366 4.052 37.0686 4.172 36.9246 4.332C36.7886 4.492 36.6886 4.696 36.6246 4.944L35.1006 4.476C35.1966 4.148 35.3326 3.864 35.5086 3.624C35.6926 3.384 35.9126 3.184 36.1686 3.024C36.4246 2.856 36.7166 2.732 37.0446 2.652C37.3726 2.572 37.7286 2.532 38.1126 2.532C38.7286 2.532 39.2286 2.632 39.6126 2.832C40.0046 3.024 40.2966 3.328 40.4886 3.744C40.6806 4.152 40.7766 4.68 40.7766 5.328V6.408C40.7766 6.688 40.7806 6.972 40.7886 7.26C40.8046 7.548 40.8206 7.84 40.8366 8.136C40.8606 8.424 40.8846 8.712 40.9086 9H39.3846C39.3526 8.8 39.3206 8.572 39.2886 8.316C39.2646 8.052 39.2446 7.788 39.2286 7.524H39.0126C38.9006 7.828 38.7406 8.104 38.5326 8.352C38.3246 8.6 38.0686 8.8 37.7646 8.952C37.4686 9.096 37.1286 9.168 36.7446 9.168ZM37.4766 7.92C37.6286 7.92 37.7806 7.892 37.9326 7.836C38.0926 7.78 38.2446 7.704 38.3886 7.608C38.5406 7.504 38.6766 7.376 38.7966 7.224C38.9246 7.072 39.0286 6.9 39.1086 6.708L39.0846 5.7L39.3606 5.76C39.2166 5.864 39.0486 5.948 38.8566 6.012C38.6646 6.068 38.4646 6.112 38.2566 6.144C38.0566 6.176 37.8566 6.212 37.6566 6.252C37.4566 6.292 37.2766 6.344 37.1166 6.408C36.9646 6.472 36.8406 6.56 36.7446 6.672C36.6566 6.776 36.6126 6.924 36.6126 7.116C36.6126 7.364 36.6926 7.56 36.8526 7.704C37.0126 7.848 37.2206 7.92 37.4766 7.92ZM42.2881 9V5.184V2.7H43.7041L43.6921 4.584H43.9321C44.0361 4.128 44.1841 3.748 44.3761 3.444C44.5681 3.14 44.8081 2.912 45.0961 2.76C45.3921 2.608 45.7401 2.532 46.1401 2.532C46.8681 2.532 47.4201 2.788 47.7961 3.3C48.1801 3.812 48.3721 4.616 48.3721 5.712V9H46.6321V5.904C46.6321 5.232 46.5321 4.744 46.3321 4.44C46.1401 4.128 45.8561 3.972 45.4801 3.972C45.1601 3.972 44.8921 4.072 44.6761 4.272C44.4601 4.472 44.2961 4.736 44.1841 5.064C44.0801 5.384 44.0241 5.744 44.0161 6.144V9H42.2881ZM52.223 11.184C51.903 11.184 51.575 11.152 51.239 11.088C50.911 11.032 50.599 10.94 50.303 10.812C50.015 10.692 49.767 10.536 49.559 10.344L50.051 8.868C50.307 9.132 50.627 9.328 51.011 9.456C51.395 9.592 51.775 9.66 52.151 9.66C52.575 9.66 52.927 9.572 53.207 9.396C53.495 9.228 53.711 8.968 53.855 8.616C54.007 8.256 54.095 7.808 54.119 7.272L54.191 6.18H53.927C53.847 6.708 53.715 7.14 53.531 7.476C53.355 7.812 53.127 8.06 52.847 8.22C52.575 8.372 52.251 8.448 51.875 8.448C51.419 8.448 51.035 8.332 50.723 8.1C50.411 7.868 50.175 7.52 50.015 7.056C49.863 6.592 49.787 6.02 49.787 5.34V2.7H51.515V4.92C51.515 5.664 51.599 6.2 51.767 6.528C51.935 6.856 52.191 7.02 52.535 7.02C52.719 7.02 52.887 6.972 53.039 6.876C53.191 6.772 53.319 6.624 53.423 6.432C53.535 6.24 53.619 6.008 53.675 5.736C53.739 5.456 53.771 5.14 53.771 4.788V2.7H55.499V7.332C55.499 7.836 55.455 8.296 55.367 8.712C55.279 9.12 55.147 9.476 54.971 9.78C54.803 10.092 54.587 10.352 54.323 10.56C54.059 10.768 53.751 10.924 53.399 11.028C53.055 11.132 52.663 11.184 52.223 11.184Z" fill="#FF006A"/>
</svg>
